<svg display="block" role="presentation" viewBox="0 0 101 17" xmlns="http://www.w3.org/2000/svg"><path d="M 45.857 0.02 L 46.416 0 L 46.416 13.861 L 46.937 14.168 C 47.281 14.372 47.458 14.587 47.458 14.803 C 47.458 15.1 47.308 15.162 45.857 15.46 C 43.503 15.944 43.586 15.965 43.586 14.882 L 43.586 13.977 L 43.198 14.438 C 42.984 14.691 42.498 15.082 42.118 15.306 C 41.529 15.652 41.261 15.712 40.309 15.709 C 39.043 15.706 38.611 15.529 37.72 14.647 C 36.212 13.154 35.866 10.464 36.901 8.263 C 38.02 5.881 41.225 4.644 43.055 5.886 L 43.586 6.246 L 43.586 2.387 L 42.99 1.993 C 42.048 1.369 42.177 1.153 43.846 0.557 C 44.645 0.272 45.55 0.03 45.857 0.02 Z M 7.425 1.832 C 8.541 1.872 8.849 1.945 9.652 2.358 L 10.583 2.839 L 10.936 2.388 C 11.181 2.074 11.419 1.936 11.712 1.936 L 12.134 1.936 L 12.218 3.314 C 12.265 4.071 12.329 5.177 12.361 5.771 L 12.42 6.851 L 11.955 6.851 C 11.543 6.85 11.443 6.757 11.058 6.021 C 10.495 4.944 9.449 3.79 8.678 3.395 C 7.816 2.953 6.634 2.96 5.708 3.411 C 2.371 5.037 2.459 12.786 5.831 14.317 C 6.563 14.65 8.091 14.682 8.815 14.379 L 9.332 14.164 L 9.33 12.555 C 9.328 11.67 9.278 10.869 9.217 10.774 C 9.157 10.679 8.857 10.554 8.55 10.497 C 8.058 10.404 7.991 10.341 7.991 9.962 L 7.991 9.532 L 13.502 9.532 L 13.502 9.962 C 13.502 10.308 13.421 10.413 13.093 10.495 C 12.358 10.68 12.31 10.801 12.31 12.491 L 12.31 14.074 L 11.586 14.567 C 10.722 15.156 9.03 15.718 7.694 15.86 C 5.813 16.059 3.7 15.387 2.281 14.138 C -0.66 11.549 -0.772 7.03 2.033 4.109 C 2.99 3.112 3.963 2.502 5.302 2.059 C 5.913 1.858 6.469 1.798 7.425 1.832 Z M 77.728 2.103 C 77.79 2.093 77.84 2.856 77.84 3.798 L 77.84 5.51 L 80.967 5.51 L 80.967 6.851 L 77.84 6.851 L 77.84 10.111 C 77.84 13.057 77.866 13.403 78.115 13.71 C 78.496 14.181 79.602 14.184 80.236 13.715 C 80.721 13.357 80.96 13.43 81.285 14.037 C 81.478 14.397 81.19 14.74 80.237 15.285 C 79.718 15.583 79.279 15.695 78.418 15.75 C 76.658 15.863 75.677 15.409 75.144 14.235 C 74.901 13.701 74.867 13.215 74.865 10.239 L 74.861 6.851 L 73.521 6.851 L 73.521 5.51 L 74.861 5.51 L 74.861 2.894 L 76.239 2.507 C 76.996 2.294 77.667 2.113 77.728 2.103 Z M 71.171 5.889 C 72.185 6.556 72.246 6.807 72.329 10.649 L 72.404 14.074 L 72.748 14.123 C 72.937 14.149 73.251 14.067 73.446 13.939 C 73.785 13.717 73.816 13.726 74.103 14.129 L 74.405 14.553 L 74.074 14.856 C 72.658 16.158 70.658 16.115 69.861 14.765 L 69.595 14.316 L 69.138 14.702 C 67.366 16.199 64.739 16.162 63.876 14.628 C 62.76 12.64 64.316 10.822 68.116 9.675 C 69.464 9.268 69.525 9.186 69.388 7.969 C 69.284 7.049 68.805 6.627 67.865 6.627 C 66.891 6.627 66.469 6.998 66.596 7.744 C 66.724 8.504 66.467 9.06 65.872 9.309 C 64.56 9.857 63.401 8.579 64.058 7.308 C 64.511 6.433 65.602 5.744 67.023 5.435 C 68.725 5.065 70.155 5.221 71.171 5.889 Z M 89.777 6.707 C 90.35 7.418 90.797 8.751 90.797 9.751 L 90.797 10.574 L 84.057 10.574 L 84.157 11.207 C 84.304 12.138 84.799 13.06 85.397 13.516 C 85.82 13.839 86.12 13.929 86.923 13.974 C 88.071 14.039 88.555 13.851 89.316 13.044 C 89.824 12.506 89.895 12.505 90.559 13.025 C 90.835 13.241 90.831 13.264 90.424 13.851 C 89.891 14.621 89.014 15.265 88.076 15.577 C 86.954 15.949 85.005 15.813 83.989 15.292 C 82.872 14.719 82.229 14.098 81.755 13.133 C 81.377 12.363 81.34 12.14 81.34 10.649 C 81.34 9.149 81.374 8.944 81.749 8.234 C 82.53 6.752 83.632 5.83 85.127 5.407 C 86.73 4.954 88.839 5.543 89.777 6.707 Z M 95.136 5.399 C 95.186 5.861 95.231 6.525 95.247 7.058 L 95.265 7.638 L 95.8 6.938 C 96.449 6.087 97.366 5.4 98.013 5.278 C 98.731 5.144 99.529 5.535 99.832 6.17 C 100.525 7.624 98.927 9.012 97.649 8.067 C 97.025 7.605 96.687 7.663 95.932 8.359 L 95.265 8.974 L 95.265 14.446 L 97.052 14.446 L 97.052 15.638 L 91.095 15.638 L 91.095 14.446 L 92.286 14.446 L 92.286 7.655 L 91.616 7.329 C 91.094 7.075 90.946 6.923 90.946 6.64 C 90.946 6.325 91.06 6.244 91.802 6.032 C 92.387 5.864 92.97 5.691 93.552 5.514 C 94.629 5.184 95.109 5.149 95.136 5.399 Z M 20.204 5.401 C 21.901 5.445 22.9 5.84 24.058 6.923 C 24.785 7.602 25.056 8.078 26.682 11.519 C 27.068 12.337 27.514 12.973 28.169 13.641 C 29.053 14.542 29.143 14.595 29.795 14.595 C 30.397 14.595 30.572 14.517 31.148 13.986 C 32.042 13.162 32.447 12.085 32.463 10.488 C 32.474 9.463 32.415 9.161 32.068 8.45 C 31.415 7.116 30.403 6.39 29.508 6.615 C 29.003 6.742 28.038 7.629 27.263 8.677 L 26.629 9.535 L 26.098 8.533 C 25.798 7.969 25.601 7.418 25.648 7.272 C 25.75 6.95 26.611 6.262 27.501 5.791 C 28.085 5.482 28.375 5.436 29.735 5.436 C 31.117 5.436 31.397 5.482 32.144 5.832 C 33.232 6.342 34.277 7.31 34.764 8.26 C 35.287 9.279 35.403 11.206 35.015 12.439 C 34.478 14.144 32.84 15.425 30.726 15.794 C 28.672 16.151 26.954 15.554 25.491 13.974 C 24.837 13.268 24.408 12.561 23.54 10.762 C 22.653 8.923 22.259 8.279 21.594 7.582 C 20.379 6.309 19.51 6.243 18.444 7.345 C 17.06 8.775 16.85 11.51 17.988 13.283 C 18.79 14.533 19.877 14.913 20.877 14.295 C 21.299 14.035 22.704 12.39 22.949 11.871 C 23.01 11.741 23.056 11.738 23.114 11.86 C 23.159 11.952 23.426 12.412 23.709 12.881 C 24.214 13.719 24.218 13.738 23.95 14.079 C 22.35 16.113 19.023 16.52 16.68 14.969 C 15.179 13.976 14.483 12.636 14.476 10.723 C 14.465 8.136 15.65 6.391 17.922 5.648 C 18.576 5.434 19.137 5.373 20.204 5.401 Z M 47.309 5.51 L 52.82 5.51 L 52.82 6.032 C 52.82 6.529 52.795 6.553 52.294 6.553 C 51.962 6.553 51.736 6.636 51.681 6.778 C 51.599 6.992 53.11 12.121 53.222 12.008 C 53.252 11.978 53.769 10.521 54.371 8.769 L 55.466 5.585 L 56.213 5.54 L 56.959 5.496 L 57.197 6.136 C 57.327 6.488 57.864 7.983 58.391 9.457 C 59.226 11.797 59.366 12.09 59.489 11.766 C 60.272 9.698 61.164 6.927 61.1 6.761 C 61.053 6.639 60.809 6.553 60.512 6.553 C 59.986 6.553 59.816 6.323 59.934 5.771 C 59.984 5.539 60.202 5.51 61.915 5.51 L 63.84 5.51 L 63.84 6.032 C 63.84 6.484 63.793 6.553 63.479 6.553 C 63.28 6.553 63.025 6.645 62.912 6.758 C 62.799 6.871 61.979 8.952 61.091 11.382 L 59.475 15.801 L 57.958 15.712 L 56.781 12.465 C 56.135 10.679 55.557 9.272 55.499 9.338 C 55.44 9.403 54.899 10.881 54.297 12.622 L 53.202 15.787 L 52.452 15.786 L 51.703 15.786 L 50.085 11.355 C 49.196 8.919 48.362 6.842 48.232 6.739 C 48.103 6.637 47.842 6.553 47.653 6.553 C 47.359 6.553 47.309 6.477 47.309 6.032 Z M 40.65 6.995 C 38.926 8.046 38.556 11.383 39.96 13.223 C 40.743 14.25 41.84 14.369 42.973 13.548 L 43.586 13.104 L 43.581 10.387 C 43.578 8.483 43.522 7.601 43.395 7.44 C 42.784 6.664 41.526 6.46 40.65 6.995 Z M 85.129 7.113 C 84.689 7.506 84.032 9.012 84.19 9.267 C 84.229 9.331 85.095 9.383 86.114 9.383 L 87.967 9.383 L 87.967 8.797 C 87.967 8.081 87.752 7.482 87.336 7.037 C 86.858 6.527 85.742 6.565 85.129 7.113 Z M 68.404 10.806 C 66.729 11.42 66.051 12.387 66.541 13.461 C 66.794 14.017 67.426 14.226 68.198 14.008 C 69.317 13.693 69.368 13.607 69.398 12.002 C 69.428 10.412 69.44 10.426 68.404 10.806 Z" fill="#2454FF" height="15.912294379062553px" id="PLxujltN2" transform="translate(0.27 0.46)" width="99.99999871526799px"/></svg>